<?xml version="1.0" ?>
<svg enable-background="new 0 0 64 64" height="64px" id="Layer_1_1_" version="1.1" viewBox="0 0 64 64" width="64px"
     xml:space="preserve" xmlns="http://www.w3.org/2000/svg" xmlns:xlink="http://www.w3.org/1999/xlink"><g><g><path d="M32,63c-10.477,0-19-8.523-19-19s8.523-19,19-19s19,8.523,19,19S42.477,63,32,63z M32,27    c-9.374,0-17,7.626-17,17s7.626,17,17,17s17-7.626,17-17S41.374,27,32,27z" fill="#333333"/></g><g><circle cx="32" cy="44" fill="#F9BA48" r="13"/></g><g><polygon fill="#333333" points="49.756,38.655 48.244,37.345 60.945,22.69 58.133,3 5.867,3 3.055,22.69 15.756,37.345     14.244,38.655 0.945,23.31 4.133,1 59.867,1 63.055,23.31   "/></g><g><rect fill="#333333" height="32.846" transform="matrix(0.7541 -0.6568 0.6568 0.7541 -5.5652 13.9056)" width="2" x="14.787" y="-2.039"/></g><g><rect fill="#333333" height="26.427" transform="matrix(0.7541 -0.6568 0.6568 0.7541 -9.6778 12.9833)" width="2" x="11.499" y="6.202"/></g><g><rect fill="#333333" height="22.496" transform="matrix(0.7541 -0.6568 0.6568 0.7541 -13.5349 12.718)" width="2" x="9.215" y="13.184"/></g><g><rect fill="#333333" height="2" transform="matrix(0.6568 -0.754 0.754 0.6568 5.6988 41.2906)" width="32.846" x="31.791" y="13.384"/></g><g><rect fill="#333333" height="2" transform="matrix(0.6568 -0.754 0.754 0.6568 3.0336 45.4959)" width="26.427" x="38.288" y="18.415"/></g><g><rect fill="#333333" height="2" transform="matrix(0.6568 -0.754 0.754 0.6568 0.0337 48.9393)" width="22.496" x="42.537" y="23.433"/></g><g><rect fill="#333333" height="2" width="18" x="23" y="22"/></g><g><rect fill="#333333" height="2" width="40" x="12" y="9"/></g><g><rect fill="#333333" height="2" width="28" x="18" y="16"/></g><g><path d="M38.551,52.9L32,49.457L25.45,52.9l1.251-7.293l-5.299-5.166l7.323-1.064L32,32.741l3.275,6.636    l7.324,1.064l-5.301,5.165L38.551,52.9z M25.699,41.838l3.15,3.071l-0.744,4.335L32,47.197l3.895,2.047l-0.744-4.335l3.15-3.071    l-4.354-0.633L32,37.26l-1.947,3.945L25.699,41.838z" fill="#333333"/></g></g></svg>