<?xml version="1.0" ?><svg id="Layer_1" style="enable-background:new 0 0 48 48;" version="1.1" viewBox="0 0 48 48" xml:space="preserve" xmlns="http://www.w3.org/2000/svg" xmlns:xlink="http://www.w3.org/1999/xlink"><style type="text/css">
	.st0{fill:#E9E9E9;}
	.st1{fill:#333333;}
	.st2{opacity:0.15;fill:#333333;}
	.st3{fill:#D2D2D2;}
	.st4{fill:#Fd5;}
	.st5{fill:#6dE;}
	.st6{fill:#5BD;}
	.st7{fill:#797979;}
	.st8{fill:#e77;}
	.st9{fill:#FFFFFF;}
	.st10{fill:#FCA211;}
	.st11{fill:#E451A2;}
	.st12{fill:#231F20;}
	.st13{fill:#FEB80F;}
	.st14{fill:#AB24F1;}
	.st15{fill:#FB8B12;}
	.st16{fill:#CD4343;}
	.st17{fill:none;stroke:#FFFFFF;stroke-width:1.5;stroke-linecap:round;stroke-linejoin:round;stroke-miterlimit:10;}
	.st18{fill:#535A5B;}
	.st19{fill:none;stroke:#333333;stroke-width:1.5;stroke-linecap:round;stroke-linejoin:round;stroke-miterlimit:10;}
	.st20{opacity:0.15;}
	.st21{fill:none;stroke:#231F20;stroke-width:1.5;stroke-linecap:round;stroke-linejoin:round;stroke-miterlimit:10;}
	.st22{opacity:0.15;fill:#E9E9E9;}
	.st23{fill:#E9E9E9;stroke:#333333;stroke-width:1.5;stroke-miterlimit:10;}
	.st24{fill:#FFFFFF;stroke:#231F20;stroke-width:1.5;stroke-linecap:round;stroke-linejoin:round;stroke-miterlimit:10;}
	.st25{fill:none;}
	.st26{fill:#D2D2D2;stroke:#333333;stroke-width:1.5;stroke-miterlimit:10;}
	.st27{fill:#FB8B12;stroke:#FB8B12;stroke-miterlimit:10;}
	.st28{fill:#797979;stroke:#333333;stroke-width:1.5;stroke-linecap:round;stroke-linejoin:round;stroke-miterlimit:10;}
	.st29{fill:#FFCF0E;stroke:#333333;stroke-width:1.5;stroke-linecap:round;stroke-linejoin:round;stroke-miterlimit:10;}
	.st30{fill:none;stroke:#231F20;stroke-width:1.5;stroke-miterlimit:10;}
	.st31{fill:#D2D2D2;stroke:#333333;stroke-width:1.5;stroke-linecap:round;stroke-linejoin:round;stroke-miterlimit:10;}
	.st32{fill:#4FC4E8;stroke:#231F20;stroke-width:1.5;stroke-linecap:round;stroke-linejoin:round;stroke-miterlimit:10;}
</style><g><polygon class="st5" points="15.8,21.2 3.1,39.7 11.7,38.9 11.7,38.9 21.3,25  "/><polygon class="st6" points="26.7,28.7 21.3,25 11.7,38.9 14.1,47.2  "/><polygon class="st5" points="32.2,21.2 44.9,39.7 36.3,38.9 36.3,38.9 26.7,25  "/><polygon class="st6" points="21.3,28.7 26.7,25 36.3,38.9 33.9,47.2  "/><g class="st20"><path class="st1" d="M37,31.6l-1.7,0.2c-1.2,0.1-2.2,0.9-2.7,2l-0.7,1.5c-0.8,1.8-3,2.5-4.8,1.6l-0.4-0.2l1.8,2.7    c0.1,0,0.2,0,0.3,0c2.1,0,4-1.2,4.9-3.2l0.7-1.5c0.2-0.5,0.6-0.8,1.1-0.8l1.7-0.2c1-0.1,1.9-0.5,2.7-1.1l-1.1-1.7    C38.3,31.3,37.7,31.6,37,31.6z"/><path class="st1" d="M20.9,36.9c-1.7,1-4,0.3-4.8-1.6l-0.7-1.5c-0.5-1.1-1.5-1.8-2.7-2L11,31.6c-0.7-0.1-1.3-0.4-1.8-0.8l-1.1,1.7    c0.8,0.6,1.7,1,2.7,1.1l1.7,0.2c0.5,0.1,0.9,0.4,1.1,0.8l0.7,1.5c0.9,1.9,2.8,3.2,4.9,3.2c0.1,0,0.2,0,0.3,0l1.8-2.7L20.9,36.9z"/></g><path class="st1" d="M3.1,40.4c-0.3,0-0.5-0.1-0.6-0.4c-0.1-0.3-0.1-0.6,0-0.8l12.7-18.4c0.1-0.2,0.3-0.3,0.5-0.3   c0.2,0,0.4,0,0.6,0.1l5.5,3.8c0.2,0.1,0.3,0.3,0.3,0.5c0,0.2,0,0.4-0.1,0.6l-9.6,13.9c-0.1,0.2-0.3,0.3-0.6,0.3L3.1,40.4   C3.2,40.4,3.2,40.4,3.1,40.4z M16,22.3L4.6,38.8l6.6-0.6l8.9-13L16,22.3z"/><path class="st1" d="M13.9,47.9c-0.3,0-0.5-0.3-0.6-0.5L11,39.1c-0.1-0.2,0-0.4,0.1-0.6l9.6-13.9c0.2-0.3,0.7-0.4,1-0.2l5.5,3.7   c0.2,0.1,0.3,0.3,0.3,0.5c0,0.2,0,0.4-0.1,0.6L14.7,47.6C14.5,47.8,14.2,48,13.9,47.9z M12.5,39l1.8,6.4l11.3-16.5L21.5,26L12.5,39   z"/><path class="st1" d="M44.9,40.4C44.8,40.4,44.8,40.4,44.9,40.4l-8.6-0.8c-0.2,0-0.4-0.1-0.6-0.3l-9.6-13.9C26,25.2,26,25,26,24.8   c0-0.2,0.1-0.4,0.3-0.5l5.5-3.8c0.3-0.2,0.8-0.1,1,0.2l12.7,18.4c0.2,0.2,0.2,0.6,0,0.8C45.4,40.3,45.1,40.4,44.9,40.4z M36.7,38.2   l6.6,0.6L32,22.3l-4.2,2.9L36.7,38.2z"/><path class="st1" d="M33.3,47.6L20.7,29.1c-0.2-0.3-0.1-0.8,0.2-1l5.5-3.7c0.3-0.2,0.8-0.1,1,0.2l9.6,13.9c0.1,0.2,0.2,0.4,0.1,0.6   l-2.4,8.3c-0.1,0.3-0.3,0.5-0.6,0.5C33.8,48,33.5,47.8,33.3,47.6z M22.3,28.9l11.3,16.5l1.8-6.4l-8.9-13L22.3,28.9z"/><path class="st8" d="M41.9,21.6l-1.2,1.1c-0.9,0.8-1.3,2-1,3.2l0.3,1.6c0.4,2-1,3.8-3,4.1l-1.7,0.2c-1.2,0.1-2.2,0.9-2.7,2   l-0.7,1.5c-0.8,1.8-3,2.5-4.8,1.6l-1.5-0.8c-1-0.6-2.3-0.6-3.4,0l-1.5,0.8c-1.7,1-4,0.3-4.8-1.6l-0.7-1.5c-0.5-1.1-1.5-1.8-2.7-2   L11,31.6c-2-0.2-3.3-2.1-3-4.1l0.3-1.6c0.2-1.2-0.2-2.4-1-3.2l-1.2-1.1c-1.5-1.4-1.5-3.7,0-5l1.2-1.1c0.9-0.8,1.3-2,1-3.2L8,10.6   c-0.4-2,1-3.8,3-4.1l1.7-0.2c1.2-0.1,2.2-0.9,2.7-2l0.7-1.5c0.8-1.8,3-2.5,4.8-1.6l1.5,0.8c1,0.6,2.3,0.6,3.4,0l1.5-0.8   c1.7-1,4-0.3,4.8,1.6l0.7,1.5c0.5,1.1,1.5,1.8,2.7,2L37,6.5c2,0.2,3.3,2.1,3,4.1l-0.3,1.6c-0.2,1.2,0.2,2.4,1,3.2l1.2,1.1   C43.4,17.9,43.4,20.2,41.9,21.6z"/><path class="st1" d="M28.8,38.1c-0.7,0-1.4-0.2-2-0.5c-1.4-0.8-2.5-1.7-4.1-0.8l-1.5,0.8c-2.1,1.2-4.8,0.3-5.8-1.9l-0.7-1.5   c-0.4-0.8-1.2-1.4-2.1-1.5l-1.7-0.2c-2.4-0.3-4.1-2.6-3.6-5l0.3-1.6c0.2-0.9-0.1-1.9-0.8-2.5l-1.2-1.1c-1.8-1.6-1.8-4.5,0-6.1   l1.2-1.1c0.7-0.6,1-1.6,0.8-2.5l-0.3-1.6c-0.5-2.4,1.2-4.7,3.6-5l1.7-0.2c0.9-0.1,1.7-0.7,2.1-1.5l0.7-1.5c1-2.2,3.7-3.1,5.8-1.9   l1.5,0.8c0.8,0.5,1.8,0.5,2.6,0l1.5-0.8c2.1-1.2,4.8-0.3,5.8,1.9L33.3,4c0.4,0.8,1.2,1.4,2.1,1.5l1.7,0.2c2.4,0.3,4.1,2.6,3.6,5   l-0.3,1.6c-0.2,0.9,0.1,1.9,0.8,2.5l1.2,1.1c1.8,1.6,1.8,4.5,0,6.1l-1.2,1.1c-0.7,0.6-1,1.6-0.8,2.5l0.3,1.6c0.2,1.1,0,2.3-0.7,3.3   c-0.7,0.9-1.7,1.6-2.9,1.7l-1.7,0.2c-0.9,0.1-1.7,0.7-2.1,1.5l-0.7,1.5C31.9,37.1,30.5,38.1,28.8,38.1z M26,35.4l1.5,0.8   c1.4,0.8,3.1,0.2,3.7-1.2l0.7-1.5c0.6-1.3,1.9-2.2,3.3-2.4l1.7-0.2c1.6-0.2,2.6-1.7,2.3-3.2l-0.3-1.6c-0.3-1.4,0.2-2.9,1.3-3.9   l1.2-1.1c1.1-1.1,1.1-2.9,0-3.9L40.2,16c-1.1-1-1.5-2.5-1.3-3.9l0.3-1.6c0.3-1.5-0.8-3-2.3-3.2l-1.7-0.2C33.8,6.9,32.6,6,32,4.7   l-0.7-1.5c-0.7-1.4-2.4-2-3.7-1.2L26,2.7c-1.3,0.7-2.8,0.7-4.1,0l-1.5-0.8c-1.4-0.8-3.1-0.2-3.7,1.2L16,4.7   c-0.6,1.3-1.9,2.2-3.3,2.4l-1.7,0.2c-1.5,0.2-2.6,1.6-2.3,3.2l0.3,1.6C9.4,13.5,8.9,15,7.8,16l-1.2,1.1c-1.1,1.1-1.1,2.9,0,3.9   l1.2,1.1c1.1,1,1.5,2.5,1.3,3.9l-0.3,1.6c-0.3,1.5,0.8,3,2.3,3.2l1.7,0.2c1.4,0.2,2.7,1.1,3.3,2.4l0.7,1.5c0.7,1.4,2.4,2,3.7,1.2   l1.5-0.8C23.2,34.7,24.8,34.7,26,35.4z"/><circle class="st4" cx="24" cy="19.1" r="13.4"/><path class="st2" d="M24,34.2c-7.8,0-14.1-6.3-14.1-14.1S16.2,5.9,24,5.9s14.1,6.3,14.1,14.1S31.8,34.2,24,34.2z M24,7.4   c-7,0-12.6,5.7-12.6,12.6S17,32.7,24,32.7S36.6,27,36.6,20.1S31,7.4,24,7.4z"/><path class="st1" d="M24,33.2c-7.8,0-14.1-6.3-14.1-14.1S16.2,4.9,24,4.9s14.1,6.3,14.1,14.1S31.8,33.2,24,33.2z M24,6.4   c-7,0-12.6,5.7-12.6,12.6S17,31.7,24,31.7S36.6,26,36.6,19.1S31,6.4,24,6.4z"/><path class="st1" d="M32.4,17c-0.2-0.6-0.8-1-1.4-1h-4.3l-1.3-4.1c-0.2-0.6-0.8-1-1.4-1c-0.6,0-1.2,0.4-1.4,1L21.3,16H17   c-0.6,0-1.2,0.4-1.4,1c-0.2,0.6,0,1.3,0.5,1.7l3.4,2.5l-1.3,4.1c-0.2,0.6,0,1.3,0.5,1.7c0.3,0.2,0.6,0.3,0.9,0.3   c0.3,0,0.6-0.1,0.9-0.3l3.4-2.5l3.4,2.5c0.5,0.4,1.2,0.4,1.8,0c0.5-0.4,0.7-1.1,0.5-1.7l-1.3-4.1l3.4-2.5   C32.4,18.3,32.6,17.7,32.4,17z"/><g><path class="st9" d="M22.3,9.6c-0.4,0-0.7-0.3-0.7-0.6c-0.1-0.4,0.2-0.8,0.6-0.9C22.8,8,23.4,7.9,24,7.9c0.4,0,0.7,0.3,0.7,0.7    S24.4,9.4,24,9.4c-0.5,0-1,0-1.6,0.1C22.4,9.6,22.4,9.6,22.3,9.6z"/></g><g><path class="st9" d="M13.6,19.8c-0.4,0-0.7-0.3-0.7-0.7c0-4.3,2.4-8.1,6.2-10c0.4-0.2,0.8,0,1,0.3c0.2,0.4,0,0.8-0.3,1    c-3.3,1.6-5.4,5-5.4,8.7C14.4,19.5,14,19.8,13.6,19.8z"/></g><polygon class="st0" points="24,12.4 25.7,17.5 31,17.5 26.7,20.6 28.3,25.7 24,22.6 19.7,25.7 21.3,20.6 17,17.5 22.3,17.5  "/></g></svg>